<?xml version="1.0" encoding="UTF-8"?>
<!DOCTYPE svg PUBLIC "-//W3C//DTD SVG 1.1//EN" "http://www.w3.org/Graphics/SVG/1.1/DTD/svg11.dtd">
<!-- Creator: CorelDRAW 2021 (64-Bit) -->
<svg xmlns="http://www.w3.org/2000/svg" xml:space="preserve" width="101.6mm" height="42.3332mm" version="1.1" style="shape-rendering:geometricPrecision; text-rendering:geometricPrecision; image-rendering:optimizeQuality; fill-rule:evenodd; clip-rule:evenodd"
viewBox="0 0 10160 4233.32"
 xmlns:xlink="http://www.w3.org/1999/xlink"
 xmlns:xodm="http://www.corel.com/coreldraw/odm/2003">
 <defs>
  <style type="text/css">
   <![CDATA[
    .fil0 {fill:#F84C84}
    .fil1 {fill:white}
   ]]>
  </style>
 </defs>
 <g id="Capa_x0020_1">
  <metadata id="CorelCorpID_0Corel-Layer"/>
  <path class="fil0" d="M1868.59 3246.91c-40.85,167.45 -207.03,171.02 -410.29,178.32 -175,6.28 -347.92,-6.14 -501.01,-66.11 -96.98,-37.95 -569.91,-466.2 -726.15,-52.7 -148.4,392.79 778.21,792.11 1527.07,625.64 863.89,-192 968.27,-875.32 389.44,-1195.97 -327.57,-181.42 -532.66,-157.26 -950.35,-190.77 -548.46,-43.99 -450.71,-330.35 141.03,-330.35 525.57,0 600.24,207.84 763.67,270.45 302.49,115.81 536.12,-214.75 316.11,-437.2 -287.22,-290.38 -950.36,-492.09 -1500.16,-331.66 -792.84,231.3 -871.58,766.01 -502.39,1080.87 560.91,478.34 1292.7,132.75 1453.03,449.48z"/>
  <path class="fil0" d="M8448.49 2284.96c286.43,-95.95 525.78,45.75 638.44,201.88 289.9,401.71 -128.86,1381.8 320.83,1474.93 350.15,72.49 360.27,-240.72 360.34,-505.75 0.11,-669.94 56.76,-1045.38 -333.42,-1436.37 -760.33,-761.91 -2075.6,-192.99 -1952.56,959.7 100.71,943.15 1405.37,1281.02 1420.04,715.38 9,-347.88 -308.16,-250.1 -524.54,-350.28 -462.35,-213.98 -439.95,-888.34 70.87,-1059.49z"/>
  <path class="fil0" d="M3606.88 2282.8c280.37,-90.69 513.12,37.11 638.03,207.88 297.76,406.97 -134.65,1373.51 326.22,1470.56 333.57,70.27 354.98,-227.74 354.66,-505.22 -0.78,-678.16 58.66,-1060.05 -346.3,-1449.14 -796.27,-765.02 -2064.8,-124.52 -1942.43,964.57 105.3,937.3 1361.48,1280.07 1421.88,750.55 42.57,-373.42 -320.02,-278.67 -520.6,-376.85 -450.07,-220.29 -459.95,-891.33 68.54,-1062.35z"/>
  <path class="fil0" d="M6072.03 2272.12c231.9,-56.69 446.93,31.35 579.85,200.11 136.55,173.31 120.54,405.49 120.54,655.21 0,198.35 -46.74,579.46 53.44,724.51 119.37,172.92 417.69,155.74 498.05,-56.86 57.15,-151.19 58.24,-1164.93 -84.94,-1461.95 -158.78,-329.29 -494.99,-612.13 -911.48,-649.42 -540.81,-48.46 -885.73,207.99 -1087.57,507.61 -260.55,386.83 -191.44,822.87 -193.66,1355.46 -1.06,250.28 80,489.8 373.6,410.85 236.41,-63.57 206.85,-313.74 206.92,-561.34 0.18,-562.25 -74.89,-997.05 445.25,-1124.18z"/>
  <path class="fil1" d="M6401.81 1072.44c-14.25,167.56 -249.29,177.89 -297.54,94.08 -98.42,-171.09 212.39,-130.31 297.54,-94.08zm-792.24 -414.45c16.15,191.23 -60.85,547.26 64.27,673.02 118.31,76.4 174.05,31.11 212.21,-74.01 99.06,47.9 131.62,102.68 261.75,108.01 132.28,5.43 195.6,-54.15 266.64,-50.55 0.18,0 384.61,132.21 295.29,-84.38 -40.88,-99.19 19.51,8.43 -104.17,-73.83 -18.51,-247.91 25.37,-474.87 -194.12,-539.96 -191.75,-56.86 -505.28,-21.83 -485.45,194.58 164.48,-15.94 437.37,-182.41 478.79,103.18 -124.07,-5.25 -247.6,-38.8 -369.3,9.31 -128.4,50.77 -115.6,172.39 -187.31,255.5 -77.85,-128.15 -25.72,-388.41 -48.19,-573.86 -90.3,-13.61 -114.96,16.23 -190.41,52.99z"/>
  <path class="fil1" d="M4990.59 1372.17c111.51,-31.46 215.82,-37.57 314.52,23 11.81,122.79 -24.17,168.97 -173.49,156.06 -132.84,-11.5 -141.8,-68.96 -141.03,-179.06zm293.53 -609.77c48.85,255.96 -204.56,226.65 -271.73,152.53 -150.91,-166.5 135.49,-183.53 271.73,-152.53zm325.45 -104.41l-2.75 -126.25c-188.87,4.97 -131.41,64.3 -242.03,82.37 -107.76,17.6 -460.02,-88.97 -552.69,137.01 -53.66,130.87 9.56,209.5 59.65,285.65 -60.29,95.25 -71.79,74.75 -60.64,221.18 9.1,119.65 -38.56,157.47 0.53,275.25 54.08,162.83 324.11,188.13 485.88,146.11 151.83,-39.43 300.86,-235.18 170.91,-382.24 -140.4,-158.91 -428.77,-4.3 -475.12,-170.7 160.64,-110.58 552.02,93.73 486.9,-388.24l129.36 -80.14z"/>
  <path class="fil1" d="M2270.9 1174.77c-129.04,-206.57 -62.44,-521.4 209.01,-384.18 122.61,61.98 160.43,480.84 -209.01,384.18zm275.08 -513.64c-649.91,-220.4 -562.85,391.31 -497.77,533.5 63.39,138.46 196.13,204.88 399.03,139.3 250.07,-80.81 66.18,-22.47 218.67,18.06 134.65,35.74 172.01,-11.95 212.64,-106.14 -86.28,-118.38 -19.15,-9.49 -125.82,-89.6l-12.81 -898.74c-254.86,0.24 -186.46,164.73 -193.94,403.62z"/>
  <path class="fil1" d="M649.19 886.85l0.35 -381.99c490.01,-64.2 538.62,453.5 -0.35,381.99zm-194.97 -148.72c0.11,594.89 -64.34,653.87 182.31,614.01l11 -300.69c184.74,-2.68 368.84,24.9 482.39,-102.16 112.92,-126.39 223.01,-666.74 -450.85,-617.67 -303.02,22.05 -224.95,119.48 -224.85,406.51z"/>
  <path class="fil1" d="M4216.19 1096.53c-106.42,-360.27 259.21,-471.28 342.1,-232.57 128.12,368.87 -270.59,474.52 -342.1,232.57zm5.12 -469.37c-421.65,174.72 -198.71,938.88 343.3,710.94 393.56,-165.52 207.27,-939.1 -343.3,-710.94z"/>
  <path class="fil1" d="M3399.22 1096.53c-97.5,285.34 -482.5,69.11 -336.35,-247.7 104.2,-225.83 450.36,-86.04 336.35,247.7zm-343.37 -466.87c-401.19,171.23 -210.1,927.18 345.7,710.2 396.31,-154.75 211.22,-947.92 -345.7,-710.2z"/>
  <path class="fil1" d="M1703.5 764.59c63.39,130.17 76.05,235.6 34.6,403.44 -188.58,86.25 -333.07,69.74 -344.28,-161.24 -11.68,-240.61 107.66,-287.46 309.68,-242.2zm-237.44 -151.58c-474.95,127.49 -285.06,921.46 272.61,731.79 375.96,-127.87 291.94,-883.3 -272.61,-731.79z"/>
  <path class="fil0" d="M7653.03 1825.99c64.59,-100.39 294.97,-233.52 453.64,-296.95 383.48,-153.23 896.63,-122.19 1257.92,113.09 274.86,178.99 284.46,313.57 415.05,312.19 121.55,-217.4 -116.77,-384.92 -286.93,-469.37 -814.69,-404.36 -1786.34,50.05 -1839.68,341.04z"/>
  <path class="fil1" d="M3645.97 529.06c-0.43,253.56 -63.64,644.83 81.66,821.31 173.27,28.61 283.08,33.83 294.02,-134.4l-169.22 -28.71 -17.21 -688.08c0,-130.17 40.18,-263.05 -91.22,-229.22 -121.91,31.36 -97.75,158.63 -98.03,259.1z"/>
  <path class="fil1" d="M5654.08 489.41c138.07,8.5 287.99,-165.58 293.64,-268.66l-172.47 -7.83c-53.83,79.58 -116.19,168.93 -121.17,276.49z"/>
 </g>
</svg>
