<?xml version="1.0" encoding="UTF-8"?>
<!DOCTYPE svg PUBLIC "-//W3C//DTD SVG 1.1//EN" "http://www.w3.org/Graphics/SVG/1.1/DTD/svg11.dtd">
<!-- Creator: CorelDRAW 2021 (64-Bit) -->
<svg xmlns="http://www.w3.org/2000/svg" xml:space="preserve" width="108.373mm" height="108.373mm" version="1.1" style="shape-rendering:geometricPrecision; text-rendering:geometricPrecision; image-rendering:optimizeQuality; fill-rule:evenodd; clip-rule:evenodd"
viewBox="0 0 10837.32 10837.32"
 xmlns:xlink="http://www.w3.org/1999/xlink"
 xmlns:xodm="http://www.corel.com/coreldraw/odm/2003">
 <defs>
  <style type="text/css">
   <![CDATA[
    .fil0 {fill:#0C0C0E}
   ]]>
  </style>
 </defs>
 <g id="Capa_x0020_1">
  <metadata id="CorelCorpID_0Corel-Layer"/>
  <path class="fil0" d="M4270.08 3105.23c28.91,238.03 171.82,403.64 291.86,527.14 378.82,389.73 538.87,582.53 284.87,1100.25 -97.15,198.03 -202.48,318.43 -234.12,587.34 -57.62,489.76 326.24,845.06 779.19,855.46 252.68,5.82 472.3,-106.05 590.09,-232.22 291.26,-312.03 192.09,-814.8 312.52,-1316.91 122.57,-511.01 588.56,-1339.54 -31.51,-1860.93 -263.29,-221.39 -693.22,-445.54 -1173.68,-467.78 -537.17,-24.86 -883.21,280.8 -819.22,807.65z"/>
  <path class="fil0" d="M5258.76 727.14c426.74,-28.52 932.05,71.75 1269.98,206.14 1031.81,410.31 1807.63,1358.97 1868.1,2638.96 21.53,455.65 -68.74,933.82 -219.02,1283.13 -152.26,353.93 -403.98,749.99 -686.18,1006.32 -108.58,98.63 -178.05,166.95 -308.94,259.18 -864.94,609.5 -1902.87,780.77 -2916.32,371.88 -247.8,-99.98 -675.89,-355.33 -870.41,-545.43 -21.55,-21.07 -23.41,-26.54 -42.81,-44.43 -469.96,-433.39 -919.85,-1096.47 -965.72,-2039.21 -47.16,-969.32 337.93,-1730.93 797.75,-2207.53 477.78,-495.22 1099.61,-863.96 2073.57,-929.01zm-141.82 -127.96c-536.67,46.86 -781.35,140.79 -1224.82,348.31 -269.17,125.95 -578.69,368.69 -779.7,585.51 -314.8,339.56 -519.2,628.49 -683.38,1085.41 -152.54,424.48 -206.81,867.13 -170.75,1371.11 113.5,1586.34 1623.74,3032.93 3416.03,2846.38 748.93,-77.96 1343.8,-352.27 1887.53,-853.53 176.43,-162.65 400.2,-427.87 525.6,-649.81 335.04,-592.95 496.07,-1143.16 439.61,-1886.32 -126.21,-1661.33 -1554.2,-3009.11 -3410.12,-2847.06z"/>
  <path class="fil0" d="M2986.51 7520.73c211.09,-81.32 560.48,68.74 562.04,498.55 1.56,432.02 -361.3,554.84 -565.74,483.54l3.7 -982.09zm-363.18 -82.52c-9.28,139.17 108.19,-0.97 127.08,227.87l1.94 707.57c-1.78,55.43 -14.82,106.77 -45.46,130.84 -64.56,50.71 -64.8,-19.17 -61.8,96.85 502.89,19.53 1178.44,71.15 1157.3,-620.45 -7.99,-261.14 -169.01,-448.24 -366.22,-519.5 -122.17,-44.13 -248.35,-47.77 -391.89,-41.37 -89.36,3.97 -363.34,-13.4 -420.95,18.19z"/>
  <path class="fil0" d="M5530.97 9295.18c0.03,107.57 11.95,683.22 -14.5,755.82 -24.47,67.17 -50.45,44.89 -97.9,90.57l2.64 69.29c67.44,16.02 143.7,5.8 211.11,5.96 97.45,0.26 157.29,28.31 164.71,-62.62 -114.84,-132.82 -152.53,145.4 -151.85,-631.64l28.05 -167.63 651.77 826.07c46.67,60.22 163.3,69.07 176.25,9.3l2.93 -124.52c-0.49,-54.74 -0.84,-109.53 -1.38,-164.24 -1.13,-117.87 -9.86,-580.76 5.45,-665.92 28.77,-160.1 173.05,-63.94 128.55,-199.5 -31.81,-7.09 -319.86,-14.13 -368.13,-0.79l-18.54 7.95c-37.02,65.66 18.46,71.65 67.71,97.35 53.14,27.76 59.37,56.89 67.36,134.44l4.72 586.54c-43.45,-33.31 -195.79,-242.85 -241.29,-299.67 -87.74,-109.5 -160.46,-205.71 -245.97,-309.99 -215.69,-263.07 -118.6,-219.61 -333.53,-221.49 -21.26,-0.19 -125.34,-3.18 -137.92,1.4 -46.01,16.76 -36.6,62.12 -3.76,88.3 71.71,57.18 103.49,11.97 103.52,175.02z"/>
  <path class="fil0" d="M4426.19 1234.52c-131.99,30.06 -206.89,84.39 -261.88,188.1 -183.42,345.96 80.28,883.24 422.86,789.3 457.71,-125.49 413.89,-1108.3 -160.98,-977.4z"/>
  <path class="fil0" d="M4433.68 7511.52c464.43,-148.33 575.09,873.29 188.1,1000.68 -473.48,155.85 -567.23,-879.58 -188.1,-1000.68zm-6.89 -100.16c-765.16,154.55 -553.38,1386.22 224.61,1206 736.02,-170.51 528.91,-1358.2 -224.61,-1206z"/>
  <path class="fil0" d="M6705.68 7512.15c251.96,-85.33 381.78,192.16 410.68,398.02 35.54,252.96 -35.9,539.11 -220.43,601.99 -461,157.04 -579.82,-868.08 -190.25,-1000.01zm-3.17 -105.78c-307.03,63.06 -525.37,333.39 -474.37,712.61 104.33,775.75 1251.89,637.39 1144.75,-210.81 -36.84,-291.77 -316.58,-574.47 -670.38,-501.8z"/>
  <path class="fil0" d="M1617.3 8082.47c-23.26,-247.23 54.89,-542.58 252.39,-578.94 262.11,-48.25 372.15,222.56 393.81,450.17 66.89,703.1 -584.31,786.49 -646.2,128.77zm239.38 -673.49c-180.06,33.42 -292.18,112.02 -373.16,225.89 -295.23,415.25 -42.44,1085.29 558.92,988.45 293.04,-47.21 525.91,-332.92 474.96,-696.02 -49.85,-355.17 -342.68,-577.35 -660.72,-518.32z"/>
  <path class="fil0" d="M8446.82 8542.07c39.2,43.93 8.6,57.46 90.97,46.64 37.44,-62.93 1.27,-391.3 31.36,-448.84 61.51,-70.73 93.3,1.37 84.87,-108.19l-464.22 0.88 -7.56 62.38c4.33,1.99 8.8,0.84 10.19,4.64 1.4,3.82 6.67,3.49 8.62,4.3 96.84,40.01 167.23,22.41 133.9,356.45 -82.75,35.21 -142.76,72.67 -258.21,44.8 -381.26,-92.03 -410.43,-944.93 38.84,-1007.85 220.58,-30.89 303.16,120.13 333.88,307.03 144.46,2.22 76.16,-36.83 86.99,-364.82 -60.14,1.92 -50.31,14.28 -87.09,48.36 -202.99,-79.86 -370.32,-156.65 -632.37,-0.48 -407.77,243.02 -362.62,882.79 -23.54,1061.3 201.81,106.23 459.15,108.07 653.37,-6.6z"/>
  <path class="fil0" d="M631.68 8077.35c-19.79,-71.36 -11.19,-470.95 -5.3,-566.21 241.25,-6 362.41,48.46 364.49,294.15 0.88,105 -31.24,190.77 -91.9,230.21 -77.07,50.13 -169.76,32.42 -267.29,41.85zm-354.63 523.58l429.79 7.21c80.34,-0.61 79.25,4.22 86.72,-70.62 -177.25,-54.23 -171.19,-21.02 -170.27,-371.05 161.3,6.04 322.71,2.64 443.69,-64.38 103.37,-57.28 183.06,-168.01 175.33,-335.89 -18.98,-412.73 -473.98,-340.36 -892.05,-341.91 -59.9,-0.23 -64.01,-11.55 -74.66,28.51 -13.28,49.97 17.06,49.74 44.87,67.21 90.44,56.81 70.35,216.08 70.39,347.69 0.02,93.03 24.11,547.13 -20.98,611.69 -59.33,84.94 -77.58,-16.23 -92.83,121.54z"/>
  <path class="fil0" d="M3157.66 9813.2c-124.12,3.94 -97.46,45.39 -83.94,170.09 5.61,51.67 5.4,166.26 21.84,206.23 13.15,31.94 -4.95,3.86 14.63,24.66 72.46,-24.35 60.83,-54.7 135.34,-24.2 53.82,22.02 99.92,40.03 167.37,48.96 485.63,64.17 688.74,-430.87 356.3,-621.42 -187.35,-107.4 -533.85,-171.36 -482.92,-381.75 33.33,-137.64 396.01,-244.37 487.83,150.08 116.84,1.63 95.89,18.65 88.91,-330.65 -111.51,6.49 -40.39,40.18 -157.53,-5.52 -167.94,-65.53 -408.01,-38.58 -531.67,61.5 -140.36,113.62 -206.23,388.24 120.15,552.4 100.3,50.43 215.57,75.45 300.49,128.34 345.03,214.91 -153.31,567.41 -376.58,186.8 -40.03,-68.26 -38.26,-98.19 -60.22,-165.52z"/>
  <path class="fil0" d="M4408.73 9738.45c28.52,-68.67 59.36,-151.35 88.27,-226.52 26.43,-68.68 67.2,-162.47 83.09,-235.28l13.31 17.33c2.03,3.14 8.97,14.31 10.94,17.98l168.61 426.73 -364.22 -0.24zm-351.85 475.3c84.6,8.24 322.13,17.8 387.21,-9.77 22.5,-136.46 -103.2,-19.86 -128.5,-151.47 -13.6,-70.64 35.09,-179.17 66.09,-215.5l429.72 -2.28c103.61,303.79 120.49,249.56 -24.44,307.07 -4.74,92.48 -11.95,73.59 188.45,75.43 78.24,0.71 200.18,7.87 273.18,-4.78 34.48,-117.32 -25.4,-40.81 -80.92,-137.35 -83.72,-145.54 -311.03,-783.25 -407.85,-993.66 -35.61,-77.37 -95.19,-51.22 -188.78,-51.96 -284.16,-2.29 -75.14,76.57 -59.65,121.63 17.99,52.32 -247.88,661.18 -286.25,758.52 -147.22,373.43 -189.04,138.07 -168.26,304.12z"/>
  <path class="fil0" d="M9718.78 8134.64c8.4,-51.2 136.21,-347.77 170.06,-462.75 41.69,53.06 153.45,384.78 189.42,463.28l-359.48 -0.53zm107.25 -598.36c-5.25,67.14 -345.26,918.54 -383.08,958.87 -61.22,65.26 -90.22,0.07 -81.75,115.59l263.38 3.12c90.29,1.25 111.06,18.53 121.09,-62.8 -119.71,-92.03 -180.15,20.68 -70.51,-317.52l441.68 -1.56c21.59,74.95 80.53,181.91 71.99,263.53 -54.55,46.71 -127.69,20.35 -96.7,104.89 23.13,26.41 378.71,14.65 464.48,10.81l9.17 -61.24c-89.79,-70.71 -76.59,-16.4 -165.85,-232.43 -42.54,-102.92 -79.99,-196.22 -119.74,-296.89 -75.14,-190.28 -154.87,-402.35 -233.83,-583.46 -52.67,-5.89 -279.12,-40.01 -295.69,17.03 -14.28,49.19 42.68,56.62 75.36,82.06z"/>
  <path class="fil0" d="M7060.04 9739.33c45.91,-142.18 136.73,-313.21 171.91,-459.55 41.24,46.07 171.31,403.3 193.02,458.01l-364.93 1.54zm100.48 -607.98c12.12,79.9 -290.87,820.82 -351.86,935.39 -41.39,77.76 -103.76,58.23 -103.24,113.53 0.54,58.58 65.5,36.64 190.13,35.51l195.4 -1.33 9 -60.07 -87.35 -40.98c-29.29,-16.89 -46.58,-36.16 -49.11,-73.96 -3.48,-51.76 43.52,-163.2 57.51,-204.34l442.78 -1.88c20.1,74.57 83.23,185.55 71.05,265.91 -60.99,54.7 -120.11,7.92 -89.06,111.32l422.5 7.15c46.87,-0.13 64.83,-47.13 12.15,-86.58 -76.87,-57.58 -61.22,-31.78 -115.22,-164.69 -117.59,-289.41 -255.72,-662.23 -372.87,-924.96 -70.85,-19.56 -201.91,-11.56 -288.89,-11.73 -26.17,82.47 -3.52,61.83 57.08,101.71z"/>
  <path class="fil0" d="M5209.72 7438.21c-1.97,119.66 88.55,22.62 110.92,220.07 11.07,97.7 3.64,233.74 3.41,335.75 -0.27,109.28 1.3,219.29 -0.46,328.43 -3.49,217.02 -42.46,152.83 -117.15,214.78l0.23 54.21c82.02,29.15 738.79,12.24 879.75,8.31l39.84 -363.87 -63.04 -8.2c-38.49,44.94 -30.79,145.71 -162.44,224.55 -80.33,48.12 -225.91,72.87 -331.8,51.37 -20.97,-40.79 -12.2,-212.33 -12.24,-269.55 -0.08,-96.85 0.03,-193.71 0.01,-290.56 -0.01,-96.85 -1.18,-194.41 -0.42,-291.14 1.09,-138.18 27.66,-122.65 126.78,-159.66l-2.74 -62.82c-75.79,-11.53 -254.56,-3.49 -351.38,-4.95 -50.68,-0.78 -83.57,-6.6 -119.27,13.28z"/>
  <path class="fil0" d="M8796.27 8594.61c58.09,19.28 191.03,9.8 259.45,10.25 204.86,1.34 209.78,25.17 214.26,-69.74 -108.11,-56.98 -120.8,-30.66 -127.73,-199.56l-0.02 -683.41c8.76,-221.22 135.4,-80.39 110.89,-221.82l-388.5 -6.43c-47.28,1.24 -59.34,-11.85 -70.88,31.05 -10.99,40.76 21.78,46.77 44.43,61.04 96.31,60.68 74.21,212.95 74,351.71 -0.12,85.05 18.33,560.41 -23.24,616.18 -46.78,62.76 -108.26,-2.59 -92.66,110.73z"/>
  <path class="fil0" d="M5195.27 1486.98c-333.17,117.08 -178.53,763.49 148.87,635.15 292.88,-114.83 206.19,-759.94 -148.87,-635.15z"/>
  <path class="fil0" d="M5777.02 1715.09c-130.12,58.69 -161.74,213.7 -140.86,337.97 19.9,118.53 120.42,254.8 264.79,184.81 252.11,-122.23 146.02,-644.59 -123.93,-522.78z"/>
  <path class="fil0" d="M6248.95 2027.37c-224.24,107.1 -128.63,581.12 101.77,457.56 207.39,-111.21 132.54,-569.46 -101.77,-457.56z"/>
  <path class="fil0" d="M6645.37 2419.73c-207.42,42.15 -179.45,499.33 24.11,434.94 177.58,-56.16 195.2,-479.51 -24.11,-434.94z"/>
 </g>
</svg>
